<mxfile host="app.diagrams.net"><diagram name="Page-1" id="diagram1"><mxGraphModel><root><mxCell id="0" /><mxCell id="1" parent="0" /><mxCell id="2" value="Start" style="rounded=1;whiteSpace=wrap;html=1;" vertex="1" parent="1"><mxGeometry x="0" y="0" width="160" height="50" as="geometry" /></mxCell><mxCell id="3" value="Prepare Ingredients" style="rounded=1;whiteSpace=wrap;html=1;" vertex="1" parent="1"><mxGeometry x="0" y="80" width="160" height="50" as="geometry" /></mxCell><mxCell id="4" value="Make Dough" style="rounded=1;whiteSpace=wrap;html=1;" vertex="1" parent="1"><mxGeometry x="0" y="160" width="160" height="50" as="geometry" /></mxCell><mxCell id="5" value="Let Dough Rise" style="rounded=1;whiteSpace=wrap;html=1;" vertex="1" parent="1"><mxGeometry x="0" y="240" width="160" height="50" as="geometry" /></mxCell><mxCell id="6" value="Preheat Oven" style="rounded=1;whiteSpace=wrap;html=1;" vertex="1" parent="1"><mxGeometry x="0" y="320" width="160" height="50" as="geometry" /></mxCell><mxCell id="7" value="Roll Out Dough" style="rounded=1;whiteSpace=wrap;html=1;" vertex="1" parent="1"><mxGeometry x="0" y="400" width="160" height="50" as="geometry" /></mxCell><mxCell id="8" value="Add Sauce" style="rounded=1;whiteSpace=wrap;html=1;" vertex="1" parent="1"><mxGeometry x="0" y="480" width="160" height="50" as="geometry" /></mxCell><mxCell id="9" value="Add Toppings" style="rounded=1;whiteSpace=wrap;html=1;" vertex="1" parent="1"><mxGeometry x="0" y="560" width="160" height="50" as="geometry" /></mxCell><mxCell id="10" value="Bake Pizza" style="rounded=1;whiteSpace=wrap;html=1;" vertex="1" parent="1"><mxGeometry x="0" y="640" width="160" height="50" as="geometry" /></mxCell><mxCell id="11" value="Slice and Serve" style="rounded=1;whiteSpace=wrap;html=1;" vertex="1" parent="1"><mxGeometry x="0" y="720" width="160" height="50" as="geometry" /></mxCell><mxCell id="12" value="End" style="rounded=1;whiteSpace=wrap;html=1;" vertex="1" parent="1"><mxGeometry x="0" y="800" width="160" height="50" as="geometry" /></mxCell><mxCell id="13" style="edgeStyle=orthogonalEdgeStyle;rounded=0;orthogonalLoop=1;jettySize=auto;html=1;" edge="1" parent="1" source="2" target="3"><mxGeometry relative="1" as_="geometry" /></mxCell><mxCell id="14" style="edgeStyle=orthogonalEdgeStyle;rounded=0;orthogonalLoop=1;jettySize=auto;html=1;" edge="1" parent="1" source="3" target="4"><mxGeometry relative="1" as_="geometry" /></mxCell><mxCell id="15" style="edgeStyle=orthogonalEdgeStyle;rounded=0;orthogonalLoop=1;jettySize=auto;html=1;" edge="1" parent="1" source="4" target="5"><mxGeometry relative="1" as_="geometry" /></mxCell><mxCell id="16" style="edgeStyle=orthogonalEdgeStyle;rounded=0;orthogonalLoop=1;jettySize=auto;html=1;" edge="1" parent="1" source="5" target="6"><mxGeometry relative="1" as_="geometry" /></mxCell><mxCell id="17" style="edgeStyle=orthogonalEdgeStyle;rounded=0;orthogonalLoop=1;jettySize=auto;html=1;" edge="1" parent="1" source="6" target="7"><mxGeometry relative="1" as_="geometry" /></mxCell><mxCell id="18" style="edgeStyle=orthogonalEdgeStyle;rounded=0;orthogonalLoop=1;jettySize=auto;html=1;" edge="1" parent="1" source="7" target="8"><mxGeometry relative="1" as_="geometry" /></mxCell><mxCell id="19" style="edgeStyle=orthogonalEdgeStyle;rounded=0;orthogonalLoop=1;jettySize=auto;html=1;" edge="1" parent="1" source="8" target="9"><mxGeometry relative="1" as_="geometry" /></mxCell><mxCell id="20" style="edgeStyle=orthogonalEdgeStyle;rounded=0;orthogonalLoop=1;jettySize=auto;html=1;" edge="1" parent="1" source="9" target="10"><mxGeometry relative="1" as_="geometry" /></mxCell><mxCell id="21" style="edgeStyle=orthogonalEdgeStyle;rounded=0;orthogonalLoop=1;jettySize=auto;html=1;" edge="1" parent="1" source="10" target="11"><mxGeometry relative="1" as_="geometry" /></mxCell><mxCell id="22" style="edgeStyle=orthogonalEdgeStyle;rounded=0;orthogonalLoop=1;jettySize=auto;html=1;" edge="1" parent="1" source="11" target="12"><mxGeometry relative="1" as_="geometry" /></mxCell></root></mxGraphModel></diagram></mxfile>